# xmcd CD database file
#
# Track frame offsets:
#	150
#	16837
#	35185
#	52027
#	66362
#	82850
#	98312
#	111585
#	128162
#	140557
#	155527
#	172560
#	189900
#	206197
#	223692
#	238262
#	253622
#	268965
#	281727
#	295392
#
# Disc length: 4154 seconds
#
# Revision: 0
# Processed by: cddbd v1.5.2PL0 Copyright (c) Steve Scherf et al.
# Submitted via: CDex 1.51
#
DISCID=31103814
DTITLE=Diversos - 20 Sucessos Somzoom Sat Volume XIX
DYEAR=1900
DGENRE=Forró
TTITLE0=estamos dando um tempo - Mastruz com Leite
TTITLE1=vem meu amor - Cabalo de Pau
TTITLE2=essência de amor - Ferro na Boneca
TTITLE3=forró na bochecha - Dj Maluco
TTITLE4=frente a frente - Forró Maior
TTITLE5=hoje faz um mês - Kaça Kabaço
TTITLE6=rabo de foguete - Catuaba com Amendoim
TTITLE7=a do véi - neo pi neo
TTITLE8=menina nova - Mel com Terra
TTITLE9=diz que sou teu paraíso - Banda Aquárius
TTITLE10=fogo cruzado - Baláio de gatos
TTITLE11=contando as estrelas - Rita de Cássia e redondo
TTITLE12=amor a mil - Calango Aceso
TTITLE13=amor sem amor - Campiões do Forró
TTITLE14=escapadinha no forró - Genildo e Ginaldo
TTITLE15=que nem peão - Corta Fogo
TTITLE16=é loucura de amor - Forró Siriguella
TTITLE17=a dança do dedinho - Retorno do forró
TTITLE18=tempo esgotado - Pinduca
TTITLE19=não sei porque a gente briga tanto - Gosto de mação
EXTD=
EXTT0=
EXTT1=
EXTT2=
EXTT3=
EXTT4=
EXTT5=
EXTT6=
EXTT7=
EXTT8=
EXTT9=
EXTT10=
EXTT11=
EXTT12=
EXTT13=
EXTT14=
EXTT15=
EXTT16=
EXTT17=
EXTT18=
EXTT19=
PLAYORDER=
